PathFileType	4	(X/Y/Z)	Patient4_TMGait_0pt6_02_left_39.trc.trc
DataRate	CameraRate	NumFrames	NumMarkers	Units	OrigDataRate	OrigDataStartFrame	OrigNumFrames
81.871345029240	81.871345029240	5	33	mm	81.871345029240	1	       141
Frame#	Time	Sacral			L.Shoulder			Chest			R.Shoulder			Neck			R.ASIS			L.ASIS			R.Thigh.Superior			R.Thigh.Lateral			R.Thigh.Inferior			R.Patella			L.Thigh.Superior			L.Thigh.Lateral			L.Thigh.Inferior			L.Patella			L.Shank.Superior			L.Shank.Lateral			L.Shank.Inferior			R.Shank.Superior			R.Shank.Lateral			R.Shank.Inferior			R.Heel			R.Midfoot.Superior			R.Midfoot.Lateral			R.Toe			L.Heel			L.Midfoot.Lateral			L.Midfoot.Superior			L.Toe			L.Elbow			L.Wrist			R.Elbow			R.Wrist			
		X1	Y1	Z1	X2	Y2	Z2	X3	Y3	Z3	X4	Y4	Z4	X5	Y5	Z5	X6	Y6	Z6	X7	Y7	Z7	X8	Y8	Z8	X9	Y9	Z9	X10	Y10	Z10	X11	Y11	Z11	X12	Y12	Z12	X13	Y13	Z13	X14	Y14	Z14	X15	Y15	Z15	X16	Y16	Z16	X17	Y17	Z17	X18	Y18	Z18	X19	Y19	Z19	X20	Y20	Z20	X21	Y21	Z21	X22	Y22	Z22	X23	Y23	Z23	X24	Y24	Z24	X25	Y25	Z25	X26	Y26	Z26	X27	Y27	Z27	X28	Y28	Z28	X29	Y29	Z29	X30	Y30	Z30	X31	Y31	Z31	X32	Y32	Z32	X33	Y33	Z33	

1	47.590000000000	808.259551739309	1011.049214595206	549.018912791600	1006.932294359507	1439.484156036364	376.279077540107	1114.287550530606	1353.919187190982	526.770176924292	1045.866162482836	1427.836279381048	707.125528260087	1023.416318028884	1491.071640461744	528.249848000754	1039.077799738428	939.719532528532	655.520488028629	1011.290342731453	959.689462486211	383.070893602070	1085.587107624999	742.756910037648	626.060035112056	1008.288328341567	633.803954268796	686.104400312738	1083.921110240349	583.482190176079	602.686900536720	1086.678077784505	493.743876500511	608.361459888474	1097.296154645509	782.077278823149	414.358854547583	1058.305181696852	655.798449447362	338.053729549588	1163.559128926274	596.281773694804	402.109061386451	1179.133798287548	505.606577188476	396.135884383835	1111.367193739664	438.200595284983	390.255769991049	968.980557155929	396.078305999266	344.053557494272	956.292149692326	267.399752190108	399.801319402977	1057.784481050669	405.070110205892	618.195895684950	987.482188814553	302.250700226238	681.792076658446	1027.275028042656	206.939301504567	618.606796537880	893.109951350943	42.723744329309	592.079595641185	1063.786256725932	97.943492726708	626.380014852150	976.371948454544	36.562487341407	666.672086546596	1184.560435778222	46.277341381327	654.213117146869	765.823165272129	211.272804791491	439.857253985797	819.864507883824	159.171969955208	360.946245331971	925.378550856572	160.098940435643	381.471524178901	994.378991091704	41.346432556997	357.084631983949	928.785830023776	1096.781674407471	251.066560013314	1076.511958283126	878.674534959559	260.804748610804	1021.333150517185	1090.358438982948	848.856887582450	1191.844001231136	893.743043261263	825.573609518846	
2	47.602214285714	807.147442693262	1012.369067085922	551.120512085660	1005.999919848541	1439.094075578027	376.274319112480	1114.391862994024	1353.634496767593	526.062216343405	1047.933328231476	1428.427779624077	706.641462973957	1024.035480279609	1491.300120589263	527.992958779130	1038.474679301083	939.712099405903	656.003637640304	1009.057577110789	960.435797413797	383.730790359606	1082.448776129472	742.026226379280	626.007490225015	1004.509924148022	633.858608160619	686.877587338139	1078.838879683068	582.768072624894	602.919252706735	1080.704405266062	493.119997969719	608.714083013610	1096.744274657005	785.819971754744	415.549561977828	1060.113925465575	659.105006523229	338.653211061098	1166.008247131968	601.321889777020	403.025761876757	1183.700955142729	511.641390824958	396.316880690410	1119.198852323349	442.556147190495	389.615890505702	979.300386236122	393.255114044897	344.585698656299	974.990808830637	263.930901841392	398.631062031265	1051.435824291994	404.715393756384	618.540337848459	980.832163161851	302.106774378173	682.146585388712	1020.080519612690	206.724061333279	618.739889890089	885.278217924962	42.707604323636	591.976258023773	1056.007534042283	97.856435308425	626.444424232591	968.595041176827	36.556332317792	666.737918096142	1176.792527114095	46.060404431926	654.325349186397	789.806944771790	195.932750503144	440.537318715951	845.267766404367	148.727764211659	360.052637795287	950.227903244238	156.192916926289	379.153262572819	1025.809768895202	43.202894706417	351.680156628986	925.471363801756	1095.906414113466	253.512477506597	1057.994591005149	870.001517543934	259.290985089515	1024.707885673717	1091.882059694787	850.095575849475	1200.117128446008	901.585250145731	821.466859735491	
3	47.614428571429	806.069027646956	1013.646685494652	553.192723474235	1005.096995947233	1438.709089220833	376.255866669133	1114.501450146736	1353.330227505907	525.348721259692	1049.985615623911	1428.982943158012	706.153705702633	1024.647082114443	1491.509200332838	527.728947883828	1037.872260183074	939.687069575743	656.457753902531	1006.842396919762	961.137840921011	384.363366979165	1079.352682025103	741.292163558287	625.960687288266	1000.770030376018	633.903566950054	687.630024537827	1073.821654078623	582.055350472260	603.151241663566	1074.796565643954	492.501288258369	609.059367505513	1096.124818138836	789.444412269758	416.691980730940	1061.775133593790	662.288905610937	339.243484551431	1168.274761364500	606.207775815709	403.930694398257	1188.064509326611	517.548209576752	396.508181120230	1126.843864359682	446.827275263279	389.027478868011	989.596462968573	390.354800417231	345.015467312697	993.587713674322	260.525740945382	397.470973030301	1045.166204838589	404.365204523361	618.880565277795	974.258828171413	301.968242447956	682.496167956089	1012.964039448202	206.509952831657	618.872021339380	877.534553584861	42.691601555289	591.894749214243	1048.300439714566	97.760941144378	626.490234783917	960.896279193498	36.548652627820	666.801658380620	1169.102821349571	45.841759016673	654.436592649028	813.790031664935	180.772973619221	441.031638266636	870.697769119132	138.444399339586	359.076220441481	974.992902783625	152.415082610505	376.896622281675	1057.088526014739	45.247527934978	346.515548852927	922.169047353863	1095.070649817504	255.890690104661	1039.661983678645	861.709836042624	257.849285930668	1028.028677983889	1093.331843309511	851.250392935826	1208.249777389036	909.372349159994	817.293645235766	
4	47.626642857143	805.056806188122	1014.840909112273	555.193387203682	1004.250172222711	1438.331946476874	376.203485365899	1114.618922256612	1352.989775508584	524.619799875938	1051.999877525219	1429.468638230960	705.651158516346	1025.243531600228	1491.679629930992	527.442083025211	1037.272011761565	939.628093242468	656.850237072708	1004.676973001730	961.755810153209	384.934730174915	1076.331713812815	740.547858138621	625.922924532404	997.091886395896	633.926248996656	688.337856774218	1068.917656028651	581.338269903767	603.380946600494	1069.000299424189	491.885510088524	609.389284658817	1095.375980483821	792.810571362059	417.733325749042	1063.134510344573	665.213060037157	339.799602347692	1170.168220063835	610.753268635681	404.796270987369	1192.002543734847	523.183145932620	396.721501551469	1134.108912129438	450.923871740052	388.532270313863	999.869490825256	387.306818050985	345.233794961010	1012.009190965391	257.264747337523	396.327153131169	1039.026568771612	404.017170613342	619.208232564373	967.802641341524	301.838230052747	682.830894358449	1005.960752547976	206.294358534312	618.998952795579	869.911903201809	42.678123374174	591.850945010422	1040.690405196719	97.654798480522	626.510203642119	953.301541968564	36.539556613458	666.859907382033	1161.517044268883	45.619623213870	654.546173374631	837.837820346919	165.982498005166	441.151841641550	896.251045229414	128.508248895094	357.942834219977	999.632968789952	148.927215265563	374.765507622407	1088.101982050446	47.731958014826	341.856853224643	918.853100569514	1094.326517856095	258.130461474497	1021.681888335355	854.159163799069	256.556846239368	1031.271333852138	1094.624743575476	852.204352345146	1216.128670313604	917.073962019775	812.927586745347	
5	47.638857142857	804.139092592119	1015.918774733400	557.083347336460	1003.479886278102	1437.964436571337	376.098470699467	1114.745227392842	1352.601347532343	523.866442879446	1053.952288468728	1429.859238693144	705.120535323831	1025.820072592123	1491.795375523455	527.116021922267	1036.678831077882	939.526624576063	657.154874605187	1002.595179538279	962.261661172426	385.413395973464	1073.408664667442	739.785504618687	625.898160483224	993.486924895125	633.915463062775	688.981789415556	1064.158669244326	580.608437898122	603.607017080980	1063.345588037402	491.268117262728	609.697681122342	1094.446681334229	795.799394218377	418.631288754580	1064.066571758430	667.762489263772	340.293452423214	1171.532289143880	614.797190227761	405.593352528523	1195.332716019678	528.427331332230	396.968370027828	1140.839639465659	454.773091677366	388.168515034304	1010.146545498576	384.061441154554	345.139154084126	1030.209391360216	254.226796988294	395.209879763979	1033.045397518172	403.665741005407	619.514197931214	961.481184984717	301.718707127480	683.141327159262	999.080995892233	206.073657644814	619.116199344425	862.411905381260	42.670411319130	591.851513386075	1033.176149019166	97.536276698179	626.498873400314	945.809736795096	36.529517564774	666.909090236408	1154.034040677045	45.392798174696	654.653506756495	862.024356845401	151.733064662450	440.727277418719	922.044781909896	119.090832199230	356.593175502048	1024.139725471034	145.879773845028	372.825428695092	1118.784242561168	50.886700543267	337.971506884070	915.484487865277	1093.722260996281	260.171480187275	1004.188085278121	847.627827156225	255.479791754337	1034.430888237404	1095.689653344101	852.850896360232	1223.676607583403	924.675608798287	808.243774535717	
